<svg width="128" height="128" viewBox="0 0 128 128" fill="none" xmlns="http://www.w3.org/2000/svg">
<ellipse cx="63" cy="65.5" rx="60" ry="60.5" fill="#5F4232"/>
<path d="M28.4523 2.87092L38.6619 11.2345L30.9631 16.2071L28.4523 2.87092Z" fill="#5F4232"/>
<path d="M105.645 8.7716L105.161 24.6848L90.9577 12.7472L105.645 8.7716Z" fill="#5F4232"/>
<path d="M117.18 89.8354L126.296 95.1096L111.357 98.8912L117.18 89.8354Z" fill="#5F4232"/>
<path d="M8.62505 90.9311L17.7406 96.2053L2.8016 99.9868L8.62505 90.9311Z" fill="#5F4232"/>
<path d="M30.7678 16.6707L47.681 10.7096L71.2571 8L94.3206 15.045C102.179 20.6448 118.409 35.5296 120.459 50.2698C122.509 65.0101 118.238 82.7851 115.847 89.8301C112.088 98.3202 98.7283 116.926 75.3573 123.429C46.1434 131.558 21.5423 105.546 18.9797 104.462C16.9296 103.595 14.367 98.6814 13.342 96.3331C11.6336 89.8301 7.90923 76.6072 6.67918 75.7401C5.44912 74.873 6.16665 67.7919 6.67918 64.3598V54.0633L8.21675 45.3925L15.3921 31.8445L30.7678 16.6707Z" stroke="#412A1D"/>
<path d="M31.9063 18.3743L48.2312 12.617L70.9873 10L93.2486 16.8041C100.834 22.2125 116.499 36.5884 118.478 50.8247C120.457 65.061 116.334 82.2283 114.026 89.0324C110.398 97.2323 97.503 115.202 74.9448 121.483C46.7471 129.334 23.0017 104.211 20.5282 103.164C18.5495 102.327 16.076 97.5812 15.0866 95.3132C13.4376 89.0324 9.84282 76.2616 8.65555 75.4242C7.46828 74.5868 8.16086 67.7478 8.65555 64.4329V54.4885L10.1396 46.1142L17.0654 33.0293L31.9063 18.3743Z" stroke="#412A1D"/>
<path d="M33.7526 22.7073L48.6068 17.4085L69.3127 15L89.5685 21.2622C96.4705 26.2398 110.725 39.4707 112.525 52.5732C114.326 65.6756 110.575 81.4756 108.474 87.7378C105.173 95.2846 93.4396 111.823 72.9138 117.604C47.2564 124.829 25.6502 101.707 23.3996 100.744C21.5991 99.9732 19.3484 95.6057 18.4482 93.5183C16.9477 87.7378 13.6768 75.9842 12.5965 75.2134C11.5162 74.4427 12.1464 68.1484 12.5965 65.0976V55.9451L13.9469 48.2378L20.2487 36.1951L33.7526 22.7073Z" stroke="#412A1D"/>
<path d="M35.7036 26.0283L49.8143 21.4759L69.4011 19.6579L88.419 25.7186C94.8519 30.3706 108.088 42.6621 109.57 54.6126C111.052 66.5631 107.249 80.8674 105.162 86.5257C101.92 93.3309 90.5692 108.163 71.0964 113.052C46.7553 119.162 26.7427 97.7415 24.634 96.8246C22.9471 96.0911 20.895 92.0779 20.0798 90.163C18.7594 84.878 15.8668 74.1279 14.8598 73.4074C13.8527 72.6869 14.5522 66.9729 15.0278 64.206L15.1798 55.8808L16.5826 48.8945L22.7317 38.0538L35.7036 26.0283Z" stroke="#412A1D"/>
<path d="M37.5532 29.2878L50.4316 25.0976L68.3072 23.4223L85.6626 28.9955C91.5328 33.2744 103.611 44.5807 104.962 55.5749C106.313 66.5691 102.84 79.7295 100.934 84.9355C97.9752 91.1967 87.6138 104.844 69.8418 109.344C47.6267 114.969 29.3656 95.265 27.4413 94.4218C25.9019 93.7472 24.0296 90.0554 23.2859 88.2938C22.0816 83.4318 19.4432 73.5421 18.5242 72.8794C17.6053 72.2167 18.2444 66.9597 18.6788 64.414L18.8187 56.7549L20.0999 50.3273L25.7131 40.3531L37.5532 29.2878Z" stroke="#412A1D"/>
<path d="M39.2297 34.4841L50.9955 30.7138L67.3962 29L83.4404 33.4558C88.9073 36.9976 100.198 46.4119 101.624 55.7348C103.05 65.0577 100.079 76.3 98.415 80.7558C95.8004 86.1256 86.5066 97.8934 70.2485 102.006C49.9259 107.148 32.8121 90.6956 31.0294 90.0101C29.6032 89.4617 27.8205 86.3541 27.1075 84.8688C25.919 80.7558 23.3282 72.3926 22.4725 71.8442C21.6168 71.2958 22.1159 66.8171 22.4725 64.6464V58.134L23.5421 52.65L28.5336 44.0811L39.2297 34.4841Z" stroke="#412A1D"/>
<path d="M40.3683 36.1876L51.5457 32.6211L67.1264 31L82.3684 35.2149C87.562 38.5653 98.2878 47.4707 99.6427 56.2896C100.998 65.1086 98.1749 75.7432 96.5943 79.9582C94.1104 85.0377 85.2813 96.1695 69.8361 100.06C50.5296 104.924 34.2715 89.3607 32.5779 88.7123C31.2231 88.1935 29.5295 85.2538 28.8521 83.8489C27.723 79.9582 25.2618 72.047 24.4488 71.5283C23.6359 71.0095 24.1101 66.773 24.4488 64.7195V58.5592L25.465 53.3716L30.2069 45.266L40.3683 36.1876Z" stroke="#412A1D"/>
<path d="M40.8607 37.8912L51.0086 34.5285L65.1542 33L78.9924 36.9741C83.7076 40.133 93.4455 48.5295 94.6756 56.8445C95.9056 65.1595 93.343 75.1865 91.9079 79.1605C89.6528 83.9498 81.637 94.4455 67.6143 98.1139C50.0861 102.699 35.3254 88.0258 33.7878 87.4144C32.5578 86.9253 31.0202 84.1536 30.4052 82.8289C29.3801 79.1605 27.1455 71.7015 26.4075 71.2124C25.6695 70.7233 26.1 66.7288 26.4075 64.7927V58.9844L27.33 54.0932L31.6352 46.4508L40.8607 37.8912Z" stroke="#412A1D"/>
<path d="M43.9741 40.8045L52.8419 37.9508L65.1481 36.8024L77.0919 40.5778C81.1303 43.4807 89.438 51.1533 90.3615 58.6201C91.2849 66.087 88.8863 75.028 87.5715 78.5652C85.5307 82.8197 78.39 92.0956 66.1534 95.1626C50.8576 98.9964 38.2987 85.6232 36.9746 85.0516C35.9152 84.5943 34.6286 82.0878 34.1177 80.8917C33.2915 77.59 31.4812 70.8741 30.849 70.4245C30.2168 69.9749 30.6599 66.4038 30.9604 64.6745L31.0613 59.472L31.947 55.1054L35.817 48.3273L43.9741 40.8045Z" stroke="#412A1D"/>
<path d="M45.8129 44.5946L53.3283 42.1193L63.7567 41.1201L73.8762 44.3869C77.2972 46.9005 84.3341 53.5449 85.1139 60.0136C85.8937 66.4823 83.8578 74.2293 82.7424 77.2942C81.0116 80.9809 74.9573 89.0196 64.5871 91.6809C51.6244 95.0076 40.9872 83.4258 39.8653 82.9311C38.9679 82.5353 37.8785 80.3641 37.446 79.328C36.7472 76.4678 35.2156 70.6501 34.6801 70.2608C34.1445 69.8715 34.5213 66.7775 34.7766 65.2791L34.864 60.7719L35.6162 56.9886L38.898 51.1149L45.8129 44.5946Z" stroke="#412A1D"/>
<path d="M50.7791 48.1832L56.3135 46.139L63.9891 45.3025L71.4303 47.9696C73.9435 50.0285 79.1107 55.474 79.6738 60.7849C80.2369 66.0957 78.726 72.4605 77.9001 74.9791C76.6204 78.0092 72.1519 84.6198 64.5165 86.8212C54.9722 89.5729 47.1638 80.0784 46.3391 79.6738C45.6793 79.3502 44.8813 77.5689 44.5648 76.7188C44.0552 74.3711 42.9378 69.5959 42.5444 69.2771C42.151 68.9582 42.4333 66.4168 42.6237 65.186L42.6954 61.4846L43.2552 58.3766L45.6799 53.5482L50.7791 48.1832Z" stroke="#412A1D"/>
<path d="M54.03 52.5761L57.8219 51.2157L63.0816 50.6609L68.1819 52.4408C69.9049 53.8136 73.4479 57.4441 73.8358 60.9833C74.2236 64.5225 73.1905 68.7634 72.6255 70.4415C71.7496 72.4602 68.6899 76.8638 63.4582 78.3281C56.9187 80.1586 51.5642 73.829 50.9989 73.5591C50.5467 73.3432 49.9991 72.156 49.7819 71.5894C49.4319 70.0247 48.6644 66.8423 48.3946 66.6297C48.1249 66.4171 48.3175 64.7237 48.4475 63.9036L48.4953 61.4371L48.8777 59.3662L50.5376 56.1495L54.03 52.5761Z" stroke="#412A1D"/>
</svg>
