<svg width="270" height="46" viewBox="0 0 270 46" fill="none" xmlns="http://www.w3.org/2000/svg">
<rect x="1" y="1" width="268" height="44" rx="22" fill="#63B6B8"/>
<rect x="1" y="1" width="268" height="44" rx="22" fill="url(#paint0_linear_1_5)" fill-opacity="0.75"/>
<rect x="1" y="1" width="268" height="44" rx="22" stroke="white" stroke-width="2"/>
<path d="M173.782 10.5086C155.864 7.40229 119.733 1.07068 118.555 0.594818H250.118C245.618 2.51148 235.636 6.34482 231.709 6.34482C226.8 6.34482 219.927 5.55171 215.018 6.34482C211.091 6.9793 205.527 9.38505 203.236 10.5086L207.9 16.2586C210.6 20.2241 202.255 23.7931 197.836 25.181C194.436 26.2494 190.473 25.9741 184.582 25.181C179.869 24.5465 177.218 23.4626 176.482 23L167.4 17.8448L173.782 10.5086Z" fill="white" stroke="white"/>
<path d="M10 17.8889C9.80364 16.4613 7.77273 10.3859 9.5 5.4762L4 10.5873L1 23L4 34.3647L7.5 39.7181L12.4182 42.2957L14.8727 44.0802L19.0455 45.0716H81.6364L77.9545 43.4854C75.6636 42.8905 70.3455 41.6612 67.4 41.5026C63.7182 41.3043 60.0364 40.9078 54.3909 39.7181C48.7455 38.5285 51.6909 38.925 47.5182 37.1405C43.3455 35.3561 40.6455 34.3647 38.1909 34.3647H28.1273H20.7636C19.8636 33.7698 18.0636 32.3423 18.0636 31.3905V28.4164C17.3273 26.3015 10.1964 19.3165 10 17.8889Z" fill="white" stroke="white"/>
<defs>
<linearGradient id="paint0_linear_1_5" x1="0" y1="23" x2="270" y2="23" gradientUnits="userSpaceOnUse">
<stop stop-color="#D1FFFA" stop-opacity="0"/>
<stop offset="0.29" stop-color="#9EE0DD" stop-opacity="0.29"/>
<stop offset="0.605" stop-color="#6CC2C1" stop-opacity="0.45"/>
<stop offset="1" stop-color="#1C9294"/>
</linearGradient>
</defs>
</svg>
